<svg width="64" height="64" viewBox="0 0 64 64" fill="none" xmlns="http://www.w3.org/2000/svg">
<g clip-path="url(#clip0)">
<g filter="url(#filter0_d)">
<rect x="1" y="1" width="62" height="62" rx="2" fill="#7C4DFF"/>
</g>
<g filter="url(#filter1_d)">
<rect x="6" y="6" width="12" height="12" rx="1" fill="white"/>
<rect x="6" y="6" width="12" height="12" rx="1" fill="white"/>
<rect x="6" y="6" width="12" height="12" rx="1" fill="white"/>
<rect x="6" y="6" width="12" height="12" rx="1" fill="white"/>
</g>
<g filter="url(#filter2_d)">
<rect x="46" y="6" width="12" height="12" rx="1" fill="white"/>
<rect x="46" y="6" width="12" height="12" rx="1" fill="white"/>
<rect x="46" y="6" width="12" height="12" rx="1" fill="white"/>
<rect x="46" y="6" width="12" height="12" rx="1" fill="white"/>
</g>
<g filter="url(#filter3_d)">
<rect x="26" y="6" width="12" height="12" rx="1" fill="white"/>
<rect x="26" y="6" width="12" height="12" rx="1" fill="white"/>
<rect x="26" y="6" width="12" height="12" rx="1" fill="white"/>
<rect x="26" y="6" width="12" height="12" rx="1" fill="white"/>
</g>
<g filter="url(#filter4_d)">
<rect x="6" y="22" width="12" height="12" rx="1" fill="white"/>
<rect x="6" y="22" width="12" height="12" rx="1" fill="white"/>
<rect x="6" y="22" width="12" height="12" rx="1" fill="white"/>
<rect x="6" y="22" width="12" height="12" rx="1" fill="white"/>
</g>
<g filter="url(#filter5_d)">
<rect x="46" y="22" width="12" height="12" rx="1" fill="white"/>
<rect x="46" y="22" width="12" height="12" rx="1" fill="white"/>
<rect x="46" y="22" width="12" height="12" rx="1" fill="white"/>
<rect x="46" y="22" width="12" height="12" rx="1" fill="white"/>
</g>
<g filter="url(#filter6_d)">
<rect x="6" y="38" width="12" height="12" rx="1" fill="white"/>
<rect x="6" y="38" width="12" height="12" rx="1" fill="white"/>
<rect x="6" y="38" width="12" height="12" rx="1" fill="white"/>
<rect x="6" y="38" width="12" height="12" rx="1" fill="white"/>
</g>
<g filter="url(#filter7_d)">
<circle cx="32" cy="32" r="16" fill="white"/>
<circle cx="32" cy="32" r="15" stroke="#A28AE6" stroke-width="2"/>
</g>
<path d="M22 34.6703C22 30.4143 39.1429 30.4143 39.1429 34.6703C39.1429 37.0347 39.1429 40.3449 39.1429 41.2907C39.1429 42.2365 22 42.2365 22 41.2907C22 39.998 22 37.9805 22 37.9805C22 37.9805 22 38.9262 22 34.6703Z" fill="#C4C4C4"/>
<path d="M24.8571 32.7572C24.8571 28.5013 42 28.5012 42 32.7572C42 35.1217 42 38.4319 42 39.3777C42 40.3234 24.8571 40.3234 24.8571 39.3777C24.8571 38.0849 24.8571 36.0674 24.8571 36.0674C24.8571 36.0674 24.8571 37.0132 24.8571 32.7572Z" fill="#C4C4C4" fill-opacity="0.5"/>
<ellipse cx="30.5714" cy="27.1739" rx="5.71429" ry="5.26087" fill="#C4C4C4"/>
<ellipse cx="33.4286" cy="25.2609" rx="5.71429" ry="5.26087" fill="#C4C4C4" fill-opacity="0.5"/>
</g>
<defs>
<filter id="filter0_d" x="-3" y="1" width="70" height="70" filterUnits="userSpaceOnUse" color-interpolation-filters="sRGB">
<feFlood flood-opacity="0" result="BackgroundImageFix"/>
<feColorMatrix in="SourceAlpha" type="matrix" values="0 0 0 0 0 0 0 0 0 0 0 0 0 0 0 0 0 0 127 0"/>
<feOffset dy="4"/>
<feGaussianBlur stdDeviation="2"/>
<feColorMatrix type="matrix" values="0 0 0 0 0 0 0 0 0 0 0 0 0 0 0 0 0 0 0.25 0"/>
<feBlend mode="normal" in2="BackgroundImageFix" result="effect1_dropShadow"/>
<feBlend mode="normal" in="SourceGraphic" in2="effect1_dropShadow" result="shape"/>
</filter>
<filter id="filter1_d" x="2" y="6" width="20" height="20" filterUnits="userSpaceOnUse" color-interpolation-filters="sRGB">
<feFlood flood-opacity="0" result="BackgroundImageFix"/>
<feColorMatrix in="SourceAlpha" type="matrix" values="0 0 0 0 0 0 0 0 0 0 0 0 0 0 0 0 0 0 127 0"/>
<feOffset dy="4"/>
<feGaussianBlur stdDeviation="2"/>
<feColorMatrix type="matrix" values="0 0 0 0 0 0 0 0 0 0 0 0 0 0 0 0 0 0 0.25 0"/>
<feBlend mode="normal" in2="BackgroundImageFix" result="effect1_dropShadow"/>
<feBlend mode="normal" in="SourceGraphic" in2="effect1_dropShadow" result="shape"/>
</filter>
<filter id="filter2_d" x="42" y="6" width="20" height="20" filterUnits="userSpaceOnUse" color-interpolation-filters="sRGB">
<feFlood flood-opacity="0" result="BackgroundImageFix"/>
<feColorMatrix in="SourceAlpha" type="matrix" values="0 0 0 0 0 0 0 0 0 0 0 0 0 0 0 0 0 0 127 0"/>
<feOffset dy="4"/>
<feGaussianBlur stdDeviation="2"/>
<feColorMatrix type="matrix" values="0 0 0 0 0 0 0 0 0 0 0 0 0 0 0 0 0 0 0.25 0"/>
<feBlend mode="normal" in2="BackgroundImageFix" result="effect1_dropShadow"/>
<feBlend mode="normal" in="SourceGraphic" in2="effect1_dropShadow" result="shape"/>
</filter>
<filter id="filter3_d" x="22" y="6" width="20" height="20" filterUnits="userSpaceOnUse" color-interpolation-filters="sRGB">
<feFlood flood-opacity="0" result="BackgroundImageFix"/>
<feColorMatrix in="SourceAlpha" type="matrix" values="0 0 0 0 0 0 0 0 0 0 0 0 0 0 0 0 0 0 127 0"/>
<feOffset dy="4"/>
<feGaussianBlur stdDeviation="2"/>
<feColorMatrix type="matrix" values="0 0 0 0 0 0 0 0 0 0 0 0 0 0 0 0 0 0 0.25 0"/>
<feBlend mode="normal" in2="BackgroundImageFix" result="effect1_dropShadow"/>
<feBlend mode="normal" in="SourceGraphic" in2="effect1_dropShadow" result="shape"/>
</filter>
<filter id="filter4_d" x="2" y="22" width="20" height="20" filterUnits="userSpaceOnUse" color-interpolation-filters="sRGB">
<feFlood flood-opacity="0" result="BackgroundImageFix"/>
<feColorMatrix in="SourceAlpha" type="matrix" values="0 0 0 0 0 0 0 0 0 0 0 0 0 0 0 0 0 0 127 0"/>
<feOffset dy="4"/>
<feGaussianBlur stdDeviation="2"/>
<feColorMatrix type="matrix" values="0 0 0 0 0 0 0 0 0 0 0 0 0 0 0 0 0 0 0.25 0"/>
<feBlend mode="normal" in2="BackgroundImageFix" result="effect1_dropShadow"/>
<feBlend mode="normal" in="SourceGraphic" in2="effect1_dropShadow" result="shape"/>
</filter>
<filter id="filter5_d" x="42" y="22" width="20" height="20" filterUnits="userSpaceOnUse" color-interpolation-filters="sRGB">
<feFlood flood-opacity="0" result="BackgroundImageFix"/>
<feColorMatrix in="SourceAlpha" type="matrix" values="0 0 0 0 0 0 0 0 0 0 0 0 0 0 0 0 0 0 127 0"/>
<feOffset dy="4"/>
<feGaussianBlur stdDeviation="2"/>
<feColorMatrix type="matrix" values="0 0 0 0 0 0 0 0 0 0 0 0 0 0 0 0 0 0 0.25 0"/>
<feBlend mode="normal" in2="BackgroundImageFix" result="effect1_dropShadow"/>
<feBlend mode="normal" in="SourceGraphic" in2="effect1_dropShadow" result="shape"/>
</filter>
<filter id="filter6_d" x="2" y="38" width="20" height="20" filterUnits="userSpaceOnUse" color-interpolation-filters="sRGB">
<feFlood flood-opacity="0" result="BackgroundImageFix"/>
<feColorMatrix in="SourceAlpha" type="matrix" values="0 0 0 0 0 0 0 0 0 0 0 0 0 0 0 0 0 0 127 0"/>
<feOffset dy="4"/>
<feGaussianBlur stdDeviation="2"/>
<feColorMatrix type="matrix" values="0 0 0 0 0 0 0 0 0 0 0 0 0 0 0 0 0 0 0.25 0"/>
<feBlend mode="normal" in2="BackgroundImageFix" result="effect1_dropShadow"/>
<feBlend mode="normal" in="SourceGraphic" in2="effect1_dropShadow" result="shape"/>
</filter>
<filter id="filter7_d" x="12" y="16" width="40" height="40" filterUnits="userSpaceOnUse" color-interpolation-filters="sRGB">
<feFlood flood-opacity="0" result="BackgroundImageFix"/>
<feColorMatrix in="SourceAlpha" type="matrix" values="0 0 0 0 0 0 0 0 0 0 0 0 0 0 0 0 0 0 127 0"/>
<feOffset dy="4"/>
<feGaussianBlur stdDeviation="2"/>
<feColorMatrix type="matrix" values="0 0 0 0 0 0 0 0 0 0 0 0 0 0 0 0 0 0 0.25 0"/>
<feBlend mode="normal" in2="BackgroundImageFix" result="effect1_dropShadow"/>
<feBlend mode="normal" in="SourceGraphic" in2="effect1_dropShadow" result="shape"/>
</filter>
<clipPath id="clip0">
<rect width="64" height="64" fill="white"/>
</clipPath>
</defs>
</svg>
